Looking In (2003)

Studio (Distributor)
    Vivid (Vivid)
Compilation
    No
Director
    Paul Thomas

Starring: Savanna Samson, Dillon Day, Taylor St. Claire, Steven St. Croix, Ann Marie Rios, Mickey G. Dru Berrymore, Dale DaBone, Brittney Skye, Rafe

    Scene Breakdowns:
    * Scene 1. Savanna Samson, Dillon Day
    * Scene 2. Taylor St. Claire, Steven St. Croix
    * Scene 3. Ann Marie Rios, Mickey G.
    * Scene 4. Ann Marie Rios, Steven St. Croix
    * Scene 5. Dru Berrymore, Taylor St. Claire
    * Scene 6. Ann Marie Rios, Savanna Samson, Steven St. Croix
    * Scene 7. Dru Berrymore, Taylor St. Claire
    * Scene 8. Ann Marie Rios, Dale DaBone
    * Scene 9. Savanna Samson, Mickey G., Steven St. Croix
    * Scene 10. Taylor St. Claire, Steven St. Croix
    * Scene 11. Savanna Samson, Dale DaBone
    * Scene 12. Brittney Skye, Rafe

Format                           : AVI
Format/Info                      : Audio Video Interleave
File size                        : 702 MiB
Duration                         : 1h 46mn
Overall bit rate                 : 921 Kbps
Writing application              : Nandub v1.0rc2
Writing library                  : Nandub build 1853/release

Video
ID                               : 0
Format                           : MPEG-4 Visual
Codec ID                         : DIV3
Codec ID/Hint                    : DivX 3 Low
Duration                         : 1h 46mn
Bit rate                         : 780 Kbps
Width                            : 512 pixels
Height                           : 384 pixels
Display aspect ratio             : 4:3
Frame rate                       : 29.970 fps
Color space                      : YUV
Chroma subsampling               : 4:2:0
Bit depth                        : 8 bits
Bits/(Pixel*Frame)               : 0.132
Stream size                      : 595 MiB (85%)

Audio
ID                               : 1
Format                           : MPEG Audio
Format version                   : Version 1
Format profile                   : Layer 3
Mode                             : Joint stereo
Mode extension                   : MS Stereo
Codec ID                         : 55
Codec ID/Hint                    : MP3
Duration                         : 1h 46mn
Bit rate mode                    : Variable
Bit rate                         : 127 Kbps
Channel(s)                       : 2 channels
Sampling rate                    : 48.0 KHz
Stream size                      : 96.6 MiB (14%)
Interleave, duration             : 24 ms (0.72 video frame)
Interleave, preload duration     : 433 ms
Writing library                  : LAME3.93a

Screenshot: 
http://kopimg.com/images/kopi_1297668142449260__upload.all.jpg


Happy Valentine's Day, Motherfuckers! >:D
